<svg xmlns="http://www.w3.org/2000/svg" xmlns:xlink="http://www.w3.org/1999/xlink" width="500" zoomAndPan="magnify" viewBox="0 0 375 374.999991" height="500" preserveAspectRatio="xMidYMid meet" version="1.0"><defs><g/><clipPath id="cd21cf4a7f"><path d="M 44.386719 44.386719 L 330.605469 44.386719 L 330.605469 330.605469 L 44.386719 330.605469 Z M 44.386719 44.386719 " clip-rule="nonzero"/></clipPath><clipPath id="69226f6619"><path d="M 187.496094 44.386719 C 108.460938 44.386719 44.386719 108.460938 44.386719 187.496094 C 44.386719 266.535156 108.460938 330.605469 187.496094 330.605469 C 266.535156 330.605469 330.605469 266.535156 330.605469 187.496094 C 330.605469 108.460938 266.535156 44.386719 187.496094 44.386719 Z M 187.496094 44.386719 " clip-rule="nonzero"/></clipPath></defs><g clip-path="url(#cd21cf4a7f)"><g clip-path="url(#69226f6619)"><path stroke-linecap="butt" transform="matrix(0.75, 0, 0, 0.75, 44.387754, 44.38775)" fill="none" stroke-linejoin="miter" d="M 190.811132 -0.00137485 C 85.430916 -0.00137485 -0.00138085 85.430922 -0.00138085 190.811138 C -0.00138085 296.196561 85.430916 381.62365 190.811132 381.62365 C 296.196555 381.62365 381.623644 296.196561 381.623644 190.811138 C 381.623644 85.430922 296.196555 -0.00137485 190.811132 -0.00137485 Z M 190.811132 -0.00137485 " stroke="#000000" stroke-width="16" stroke-opacity="1" stroke-miterlimit="4"/></g></g><path stroke-linecap="butt" transform="matrix(0.75, 0, 0, 0.75, 118.012086, 16.499999)" fill="none" stroke-linejoin="miter" d="M 115.473476 108.08855 L 164.937021 108.08855 L 164.937021 273.265644 C 164.937021 288.536479 161.520354 301.791688 154.676603 313.031272 C 147.890145 324.218773 138.426602 332.88544 126.285976 339.036482 C 114.197434 345.187524 100.124516 348.260441 84.056807 348.260441 C 69.796389 348.260441 56.858889 345.713566 45.249513 340.625024 C 33.69222 335.536482 24.520345 327.82294 17.733886 317.484397 C 10.947427 307.145855 7.582844 294.104187 7.634927 278.359395 L 57.499514 278.359395 C 57.655764 287.791687 60.358889 295.109396 65.608889 300.307313 C 70.910973 305.500022 77.910973 308.09898 86.603682 308.09898 C 105.692225 308.09898 115.312017 296.489604 115.473476 273.265644 Z M 115.473476 108.08855 " stroke="#ffffff" stroke-width="24.43095" stroke-opacity="1" stroke-miterlimit="4"/><g fill="#000000" fill-opacity="1"><g transform="translate(118.012086, 275.249982)"><g><path d="M 86.578125 -177.6875 L 123.71875 -177.6875 L 123.71875 -53.796875 C 123.71875 -42.335938 121.15625 -32.398438 116.03125 -23.984375 C 110.914062 -15.566406 103.816406 -9.0625 94.734375 -4.46875 C 85.660156 0.125 75.109375 2.421875 63.078125 2.421875 C 52.367188 2.421875 42.660156 0.515625 33.953125 -3.296875 C 25.253906 -7.109375 18.359375 -12.890625 13.265625 -20.640625 C 8.179688 -28.398438 5.664062 -38.175781 5.71875 -49.96875 L 43.125 -49.96875 C 43.238281 -42.914062 45.273438 -37.4375 49.234375 -33.53125 C 53.191406 -29.625 58.441406 -27.671875 64.984375 -27.671875 C 79.265625 -27.671875 86.460938 -36.378906 86.578125 -53.796875 Z M 86.578125 -177.6875 "/></g></g></g></svg>